<?xml version="1.0" standalone="no"?>
<!DOCTYPE svg PUBLIC "-//W3C//DTD SVG 20010904//EN"
 "http://www.w3.org/TR/2001/REC-SVG-20010904/DTD/svg10.dtd">
<svg version="1.0" xmlns="http://www.w3.org/2000/svg"
 width="1500.000000pt" height="1500.000000pt" viewBox="0 0 1500.000000 1500.000000"
 preserveAspectRatio="xMidYMid meet">
<metadata>
Created by potrace 1.11, written by Peter Selinger 2001-2013
</metadata>
<g transform="translate(0.000000,1500.000000) scale(0.100000,-0.100000)"
fill="#000000" stroke="none">
<path d="M7295 14381 c-11 -4 -47 -20 -80 -35 -99 -47 -254 -93 -350 -105 -49
-6 -155 -18 -235 -27 -173 -18 -291 -41 -454 -90 -407 -121 -709 -295 -974
-563 -126 -127 -229 -271 -332 -465 -34 -64 -65 -114 -69 -112 -4 3 -17 25
-29 49 -31 62 -42 163 -29 270 6 48 7 90 3 94 -10 10 -70 -52 -138 -142 -130
-170 -175 -320 -165 -535 4 -63 11 -141 17 -173 6 -33 9 -61 6 -64 -10 -11
-153 146 -186 204 -19 34 -40 63 -46 63 -30 1 -70 -298 -54 -408 14 -99 59
-220 98 -264 14 -16 13 -18 -6 -18 -28 0 -95 27 -155 62 -26 15 -52 28 -57 28
-13 0 -12 -86 0 -174 12 -83 48 -153 107 -207 l44 -41 -26 -34 c-17 -23 -56
-50 -111 -77 -112 -55 -111 -67 9 -107 l67 -22 -51 -59 c-28 -32 -55 -61 -60
-64 -4 -3 -6 -12 -2 -20 3 -10 20 -15 49 -15 51 0 41 38 84 -319 33 -275 79
-521 197 -1061 130 -595 143 -663 143 -727 l0 -63 -102 104 c-97 97 -108 105
-188 136 -114 44 -157 48 -213 21 -57 -28 -71 -50 -96 -147 -31 -124 -41 -213
-41 -357 0 -158 18 -271 71 -457 47 -161 103 -281 232 -493 68 -111 103 -180
117 -230 75 -261 115 -308 269 -315 47 -2 113 1 145 7 33 6 63 8 67 4 5 -5 24
-69 43 -143 109 -424 288 -816 500 -1098 41 -53 148 -175 240 -271 l166 -174
0 -312 c0 -173 3 -321 7 -330 5 -16 -1 -17 -78 -9 -184 19 -313 0 -382 -57
-36 -30 -51 -62 -82 -179 -10 -36 -35 -123 -57 -195 -22 -71 -64 -215 -93
-320 -68 -241 -78 -267 -119 -324 -19 -25 -36 -59 -38 -74 -3 -31 31 -16 -578
-261 -334 -135 -317 -130 -477 -150 -61 -8 -125 -22 -141 -30 -28 -15 -34 -24
-64 -111 -15 -45 -31 -52 -209 -93 -59 -14 -186 -64 -410 -165 -178 -79 -459
-205 -624 -278 -165 -74 -303 -138 -307 -144 -20 -27 -6 -56 54 -107 34 -29
116 -105 183 -168 505 -483 995 -825 1645 -1150 875 -438 1765 -686 2820 -786
226 -21 874 -30 1111 -15 910 59 1689 261 2559 665 645 300 1355 763 1860
1215 233 209 440 430 440 472 0 11 -19 27 -52 42 -74 35 -496 217 -596 258
l-83 33 -47 -18 c-85 -33 -94 -30 -117 43 -12 37 -31 72 -46 85 -29 25 -153
63 -539 165 -440 116 -1366 351 -1383 351 -8 0 -32 23 -52 50 -38 52 -78 80
-115 80 -16 0 -20 6 -20 33 0 17 -18 84 -39 148 -21 63 -53 177 -70 253 -27
115 -31 149 -25 210 10 108 -8 133 -166 241 -145 99 -347 182 -616 254 l-41
11 4 72 c11 224 23 565 23 640 l0 87 59 51 c182 158 390 474 509 775 84 211
152 467 188 703 l17 112 76 0 c161 1 191 29 273 249 30 83 67 149 180 325 235
365 334 585 392 877 37 184 40 242 21 324 -45 197 -123 227 -385 149 -101 -31
-165 -66 -268 -147 -43 -33 -83 -65 -90 -70 -18 -14 -11 79 34 418 66 496 309
1702 361 1783 13 22 12 25 -25 60 -60 56 -82 112 -44 112 23 0 122 57 122 71
0 14 -35 80 -74 142 -83 130 -156 308 -181 439 -7 35 -7 35 52 58 64 26 96 50
85 65 -4 6 -50 43 -103 83 -107 79 -293 257 -359 342 l-43 55 84 6 c237 19
259 22 259 36 0 19 -159 256 -259 387 -123 162 -272 281 -432 347 l-83 34 107
3 c103 3 107 3 107 25 0 18 -23 37 -109 90 -60 37 -140 84 -178 103 -77 39
-262 89 -368 99 -38 3 -86 8 -106 11 l-36 5 26 28 c35 38 114 188 102 195 -5
3 -55 -8 -112 -24 -176 -51 -299 -70 -514 -80 -429 -20 -635 -31 -753 -40 -67
-6 -136 -10 -154 -10 l-31 0 39 26 c100 66 175 167 199 267 6 22 4 27 -11 26
-11 -1 -28 -4 -39 -8z m924 -1961 c380 -63 634 -173 868 -378 54 -47 66 -63
82 -116 56 -180 173 -908 236 -1466 18 -165 31 -441 45 -960 17 -649 28 -737
111 -902 22 -44 38 -85 37 -90 -2 -6 -24 12 -49 40 -24 29 -47 52 -51 52 -19
0 -4 -28 43 -82 50 -58 65 -92 19 -43 -13 14 -27 25 -32 25 -17 0 -7 -28 22
-55 30 -29 43 -58 15 -35 -9 7 -19 10 -23 5 -4 -4 2 -14 13 -23 20 -15 20 -19
8 -151 -7 -75 -24 -219 -38 -321 -14 -102 -32 -239 -41 -305 -44 -338 -145
-726 -258 -998 -118 -285 -288 -533 -448 -654 -169 -128 -261 -192 -268 -188
-4 3 -10 -1 -13 -9 -5 -14 -149 -126 -161 -126 -3 0 -6 12 -7 28 0 24 -3 21
-22 -21 -17 -36 -36 -57 -82 -87 -33 -22 -63 -40 -67 -40 -5 0 -8 10 -8 23 -1
21 -1 22 -15 3 -8 -11 -15 -27 -15 -37 0 -17 -35 -42 -175 -123 -56 -33 -81
-42 -86 -34 -6 9 -10 7 -15 -5 -5 -14 -129 -87 -146 -87 -2 0 -1 21 1 46 2 36
0 45 -10 42 -9 -3 -15 -23 -17 -54 -3 -44 -6 -51 -30 -61 -15 -6 -70 -29 -122
-51 -52 -22 -111 -43 -131 -47 -36 -7 -37 -6 -43 29 -9 47 -23 46 -32 -1 -4
-21 -12 -41 -18 -45 -18 -13 -111 -9 -125 4 -11 10 -14 10 -18 1 -3 -9 -26
-13 -68 -13 -62 0 -63 1 -84 36 -23 38 -45 38 -35 -2 7 -29 10 -29 -108 -5
-142 30 -275 75 -298 102 -15 19 -21 21 -28 11 -14 -21 -162 43 -162 69 0 11
-7 19 -16 19 -8 0 -12 -4 -9 -10 3 -6 2 -10 -2 -10 -16 0 -107 62 -121 81 -7
11 -20 19 -28 19 -8 0 -37 17 -64 37 -48 36 -58 53 -75 127 -7 34 -22 24 -27
-19 l-3 -30 -52 51 c-45 42 -53 56 -53 87 0 20 -4 39 -10 42 -11 7 -13 -5 -10
-44 l2 -24 -39 30 c-60 48 -313 310 -374 388 -170 215 -356 527 -453 757 -58
138 -136 378 -185 569 -39 153 -58 279 -100 689 -18 169 -18 176 0 222 14 35
15 49 7 54 -7 4 -14 2 -16 -4 -5 -17 -22 -15 -22 3 0 8 6 15 14 15 15 0 41 56
52 115 11 60 -16 39 -40 -31 -15 -43 -21 -53 -24 -37 -2 13 8 51 21 85 31 76
43 138 29 138 -6 0 -20 -30 -33 -67 -26 -79 -37 -68 -19 18 7 32 10 72 7 89
-4 16 1 94 10 172 14 118 16 239 15 698 -3 828 14 1239 59 1500 51 292 187
717 305 953 58 115 101 145 318 222 261 92 477 113 801 76 105 -12 270 -34
368 -50 l177 -27 213 63 c116 36 253 75 302 88 285 74 643 91 924 45z m2135
-3019 c21 -23 36 -115 35 -211 l-2 -75 -11 92 c-6 50 -15 95 -20 100 -13 12 2
-228 15 -244 15 -17 -11 -190 -51 -348 -41 -166 -117 -306 -352 -656 -54 -80
-125 -200 -159 -265 -34 -65 -69 -127 -78 -138 -26 -29 -87 -56 -128 -56 -48
0 -67 12 -59 36 3 11 12 91 21 179 9 88 27 232 40 320 39 262 55 394 60 508 2
59 9 115 14 125 5 9 29 36 53 59 l43 42 0 -137 c0 -126 2 -141 24 -182 61
-112 63 -118 51 -139 -6 -12 -32 -32 -59 -46 -27 -13 -61 -39 -76 -57 -26 -31
-27 -36 -21 -101 7 -76 25 -126 26 -71 0 59 30 123 73 157 22 18 58 49 80 70
l40 37 -5 68 c-3 41 -16 92 -33 132 -63 150 -61 135 -36 242 21 92 24 98 59
118 l37 22 -22 -24 c-46 -49 -24 -51 47 -3 28 19 69 40 91 46 22 7 38 17 36
23 -4 12 -18 12 -64 3 -16 -4 -2 7 32 24 60 30 69 31 148 13 21 -5 27 -3 27 9
0 24 -70 67 -108 67 -50 0 -148 -27 -219 -61 -60 -29 -71 -39 -187 -174 l-26
-30 5 70 c5 72 12 130 21 177 4 20 24 39 77 73 144 93 447 221 528 224 9 1 23
-7 33 -18z m-6225 -48 c81 -47 213 -143 329 -240 61 -52 112 -96 112 -98 0 -2
3 -12 6 -22 4 -10 -17 5 -47 33 -59 56 -130 104 -154 104 -26 0 -17 -15 23
-37 50 -29 114 -84 154 -135 18 -23 27 -39 21 -35 -8 5 -13 3 -13 -7 0 -9 7
-16 15 -16 8 0 15 -5 15 -11 0 -28 154 -1302 165 -1366 l6 -33 -68 0 c-89 0
-179 24 -223 59 -37 30 -52 57 -166 296 -144 302 -157 330 -194 430 -20 55
-58 155 -84 223 -91 239 -109 383 -73 562 31 147 94 320 118 320 7 0 33 -12
58 -27z m4542 -4148 c2 -176 0 -396 -5 -490 -7 -163 -7 -171 13 -203 20 -31
125 -92 159 -92 50 0 -22 -53 -570 -421 -332 -223 -415 -265 -746 -370 -86
-28 -177 -57 -201 -66 -83 -30 -134 -94 -176 -221 l-17 -53 -49 100 c-34 69
-61 110 -89 134 -64 54 -212 140 -350 202 -147 66 -289 141 -381 200 -92 59
-287 225 -398 339 l-93 96 31 35 31 36 0 337 c0 246 -5 405 -20 587 -11 138
-20 266 -20 285 l0 35 78 -76 c262 -257 501 -420 733 -500 52 -18 102 -39 111
-47 9 -7 22 -11 28 -7 13 8 120 -13 120 -24 0 -5 21 -8 48 -8 26 0 110 -3 187
-8 218 -12 338 14 570 124 187 89 385 219 629 415 49 39 151 112 225 162 l136
91 6 -136 c4 -75 8 -280 10 -456z m1039 -1371 c0 -20 -4 -25 -16 -20 -9 3 -27
6 -40 6 -34 0 -30 15 9 28 47 15 47 14 47 -14z m-144 -96 c2 -3 2 -24 -2 -48
l-7 -42 -44 5 c-24 2 -46 6 -48 9 -2 2 -1 23 2 47 l6 43 44 -5 c24 -2 46 -7
49 -9z m223 -34 c26 -5 30 -10 26 -30 -3 -13 -7 -35 -10 -48 -4 -21 -8 -23
-45 -16 -23 4 -43 10 -46 13 -3 3 -3 24 1 46 7 44 14 47 74 35z m-616 -111
c-3 -21 -9 -42 -13 -46 -12 -13 -90 4 -90 20 0 10 69 51 107 62 1 1 -1 -16 -4
-36z m223 2 c31 -6 32 -6 22 -48 -5 -23 -11 -43 -13 -45 -2 -2 -23 -1 -48 3
l-44 7 8 41 c5 23 8 46 9 50 0 5 8 6 18 3 9 -2 31 -7 48 -11z m252 -41 c10 -3
12 -15 7 -47 -4 -23 -9 -43 -10 -45 -2 -2 -24 0 -49 3 l-46 7 6 37 c9 60 11
61 46 55 18 -3 39 -8 46 -10z m-621 -88 c2 -1 -1 -22 -5 -47 l-8 -44 -44 3
c-25 2 -46 5 -48 7 -2 2 0 24 3 50 l7 46 47 -7 c25 -4 47 -7 48 -8z m-247 -36
c0 -21 -10 -24 -49 -13 l-23 6 23 13 c34 19 49 17 49 -6z m487 -5 c8 -3 9 -15
2 -47 -6 -23 -11 -44 -13 -46 -2 -1 -22 0 -45 4 -36 6 -41 10 -41 33 0 14 3
36 6 49 6 20 11 22 43 16 20 -3 41 -7 48 -9z m222 -35 c22 0 23 -2 16 -47 -4
-27 -8 -49 -9 -51 -2 -1 -24 1 -50 4 l-46 7 6 36 c9 59 12 64 37 57 12 -3 33
-6 46 -6z m-4433 -44 c-3 -12 -6 -27 -6 -34 0 -9 -7 -11 -22 -6 -29 8 -38 22
-38 56 0 25 1 26 36 15 29 -9 34 -15 30 -31z m3554 18 c32 -7 32 -8 27 -51 -2
-24 -6 -45 -8 -47 -10 -9 -81 8 -86 20 -9 23 7 84 21 84 8 0 28 -3 46 -6z
m1118 -19 c2 -2 -2 -21 -9 -44 -11 -36 -16 -41 -42 -41 -29 0 -29 1 -23 38 3
20 6 43 6 50 0 10 9 12 33 7 17 -4 33 -9 35 -10z m-840 -30 c2 -2 0 -24 -3
-49 l-7 -46 -37 6 c-60 9 -61 11 -55 46 10 60 11 60 57 53 23 -4 43 -9 45 -10z
m-3613 -25 c37 -14 32 -34 -6 -26 -17 3 -40 6 -50 6 -13 0 -19 7 -19 21 0 22
14 22 75 -1z m3852 -14 c2 -1 -1 -22 -5 -47 l-8 -44 -39 3 c-52 5 -57 11 -49
61 l7 43 46 -7 c25 -4 47 -8 48 -9z m244 -45 c3 -3 2 -26 -3 -49 -8 -39 -12
-43 -31 -38 -12 3 -32 6 -44 6 -18 0 -23 6 -23 28 0 15 3 37 6 50 6 21 11 23
48 17 22 -4 44 -10 47 -14z m-1114 -5 c1 -1 -1 -22 -5 -47 -8 -47 -12 -48 -81
-33 -21 4 -22 9 -16 42 4 20 9 41 12 46 5 7 82 1 90 -8z m-3099 -21 c3 -2 1
-25 -2 -50 -7 -41 -9 -45 -32 -40 -13 3 -35 7 -48 10 -16 3 -23 11 -21 22 16
80 12 76 58 69 23 -4 43 -9 45 -11z m4450 -10 c2 -2 0 -24 -3 -49 l-7 -46 -37
6 c-60 9 -61 11 -55 46 10 59 10 59 56 52 24 -4 44 -8 46 -9z m-1141 -1 c26
-5 29 -9 25 -37 -6 -39 -16 -47 -64 -47 -33 0 -38 3 -38 23 1 63 14 74 77 61z
m-467 -13 c0 -5 -9 -7 -20 -4 -11 3 -20 7 -20 9 0 2 9 4 20 4 11 0 20 -4 20
-9z m-2592 -15 c1 -2 -1 -24 -4 -49 l-7 -47 -41 6 c-22 4 -44 9 -48 13 -4 3
-4 26 -1 49 l6 44 46 -7 c25 -4 47 -8 49 -9z m1659 -2 c-3 -3 -12 -4 -19 -1
-8 3 -5 6 6 6 11 1 17 -2 13 -5z m309 -10 c-3 -9 -6 -23 -6 -31 0 -13 -8 -14
-47 -8 -56 8 -55 8 -47 28 7 18 24 24 73 26 26 1 32 -2 27 -15z m203 -10 c20
-16 31 -35 31 -51 0 -24 -2 -25 -47 -18 -27 4 -49 8 -51 10 -1 1 0 21 4 44 8
48 20 51 63 15z m-456 9 c-7 -2 -21 -2 -30 0 -10 3 -4 5 12 5 17 0 24 -2 18
-5z m1609 -11 c5 -5 6 -27 2 -50 -6 -37 -9 -41 -30 -37 -78 16 -75 15 -68 38
9 29 5 26 55 36 l44 9 -48 1 c-33 1 -46 5 -41 12 7 12 71 6 86 -9z m-3084 -17
c1 -1 0 -10 -4 -19 -4 -12 -19 -16 -54 -16 -45 0 -47 1 -42 26 4 25 7 26 51
19 25 -4 47 -8 49 -10z m2196 0 c21 -4 23 -9 17 -37 -6 -30 -11 -34 -51 -39
-25 -4 -47 -5 -49 -3 -2 2 0 24 3 49 7 41 9 45 32 40 13 -3 35 -7 48 -10z
m1105 -11 c30 -6 31 -8 25 -43 -9 -60 -9 -59 -54 -51 -22 4 -43 10 -46 12 -2
3 -2 24 2 47 7 44 13 47 73 35z m-3084 -24 c27 -7 25 -8 -17 -9 -27 0 -48 4
-48 9 0 11 21 11 65 0z m2201 0 c14 0 22 -4 19 -10 -3 -5 -24 -10 -45 -10 -32
0 -38 3 -33 16 3 8 12 13 20 10 8 -3 26 -6 39 -6z m-1079 -15 c6 -2 10 -12 8
-22 -12 -61 -16 -73 -24 -73 -5 0 -11 9 -14 20 -6 25 -27 26 -28 3 0 -15 -1
-15 -8 2 -5 11 -12 35 -16 53 l-7 33 39 -6 c21 -4 43 -8 50 -10z m2204 -1 l36
-6 -9 -46 c-4 -25 -9 -46 -11 -47 -1 -1 -19 0 -40 3 -44 5 -52 18 -43 67 7 37
10 38 67 29z m-3564 -12 c24 -15 -2 -30 -41 -23 -53 8 -60 31 -9 31 21 0 43
-4 50 -8z m6558 -33 c22 -11 29 -16 15 -13 -14 3 -43 15 -65 25 -22 10 -29 16
-15 12 14 -3 43 -14 65 -24z m-7196 14 c21 -5 23 -10 18 -45 -3 -22 -8 -42
-11 -45 -3 -3 -25 -2 -49 1 -35 5 -44 11 -42 24 14 68 16 72 38 72 12 0 33 -3
46 -7z m881 -3 c13 0 16 -6 12 -25 -4 -23 -8 -25 -41 -19 -56 9 -60 11 -54 34
5 18 11 21 36 16 16 -3 37 -6 47 -6z m880 -5 c0 -17 -8 -18 -65 -8 l-40 8 45
6 c25 3 48 7 53 7 4 1 7 -5 7 -13z m479 -1 c2 -2 0 -24 -4 -49 l-6 -47 -42 7
c-53 9 -56 11 -52 33 16 77 12 73 58 66 23 -4 44 -8 46 -10z m1108 8 c8 -5 10
-22 6 -51 l-6 -43 -45 6 c-25 3 -47 8 -49 10 -2 2 -1 22 3 45 6 39 8 41 43 41
20 0 41 -4 48 -8z m1121 -17 c2 -2 0 -24 -3 -49 -7 -42 -9 -45 -31 -41 -78 16
-74 13 -68 48 10 60 11 60 56 53 23 -4 44 -9 46 -11z m-3332 -11 c-3 -9 -6
-27 -6 -40 0 -23 -2 -24 -42 -18 -54 8 -61 15 -52 48 6 24 10 26 56 26 42 0
49 -3 44 -16z m1961 -21 c-3 -2 -27 -1 -54 3 l-48 8 50 11 c41 9 51 9 53 -3 2
-7 2 -16 -1 -19z m-1716 11 c6 -4 -5 -81 -12 -89 -3 -2 -23 -1 -47 2 -45 6
-48 11 -36 72 7 32 8 32 48 25 22 -3 44 -8 47 -10z m2193 1 c21 -4 23 -8 16
-45 -4 -23 -10 -43 -13 -46 -3 -3 -24 -3 -46 1 -44 7 -47 14 -35 74 5 26 10
30 30 26 13 -3 35 -7 48 -10z m-3335 -1 c32 -7 32 -8 25 -48 -3 -22 -8 -44
-10 -47 -4 -6 -81 5 -89 12 -2 3 -1 23 2 47 6 45 11 48 72 36z m2239 -9 c1 -1
-1 -23 -4 -49 l-7 -47 -46 7 c-25 4 -47 8 -49 9 -1 1 1 23 4 49 l7 47 46 -7
c25 -4 47 -8 49 -9z m2198 -3 c6 -4 14 -28 17 -54 l6 -47 -37 6 c-50 8 -54 13
-46 61 5 34 11 42 28 42 11 0 26 -4 32 -8z m-3057 -28 c2 -2 0 -24 -3 -49 l-7
-46 -37 6 c-56 10 -61 12 -57 32 16 80 12 75 58 68 23 -4 44 -9 46 -11z m2217
-7 c3 -3 3 -24 -1 -46 -7 -44 -14 -47 -74 -35 -26 5 -30 10 -26 30 3 13 7 35
10 48 4 21 8 23 45 16 23 -4 43 -10 46 -13z m-3330 0 c1 -1 -1 -20 -5 -42 -6
-37 -9 -40 -41 -43 -53 -4 -63 8 -55 58 l7 42 46 -6 c25 -3 46 -7 48 -9z
m2163 4 c8 -5 17 -30 21 -55 l7 -46 -36 6 c-20 4 -38 8 -40 10 -2 2 0 24 3 49
7 44 18 53 45 36z m-801 -36 c1 -1 0 -21 -4 -44 l-7 -41 -50 0 -49 0 6 31 c3
17 6 40 6 51 0 17 5 19 48 12 26 -3 48 -8 50 -9z m2207 -6 c2 -3 1 -23 -2 -47
-6 -45 -11 -48 -72 -36 -32 7 -32 8 -25 48 3 22 8 44 10 47 4 6 81 -5 89 -12z
m-3327 -4 c3 -2 1 -25 -2 -50 -7 -41 -9 -45 -32 -40 -13 3 -35 7 -48 10 -16 3
-23 11 -21 22 16 80 12 76 58 69 23 -4 43 -9 45 -11z m2211 -1 c2 -2 0 -24 -4
-49 l-6 -47 -42 7 c-53 9 -56 11 -52 33 16 77 12 73 58 66 23 -4 44 -8 46 -10z
m-858 -30 c7 -4 -5 -81 -14 -90 -10 -10 -47 7 -47 22 0 8 -4 14 -10 14 -5 0
-10 -8 -10 -17 0 -12 -3 -14 -11 -6 -7 7 -8 26 -4 53 l7 41 41 -6 c23 -4 45
-9 48 -11z m2221 -4 c6 0 5 -6 -7 -64 -6 -27 -8 -28 -46 -23 -23 3 -43 8 -46
11 -3 3 -2 25 1 49 l7 44 42 -8 c23 -4 45 -8 49 -9z m-3363 4 c32 -7 32 -8 25
-48 -3 -22 -8 -44 -10 -47 -4 -6 -81 5 -89 12 -2 3 -1 23 2 47 6 45 11 48 72
36z m2243 -13 c4 -3 4 -26 1 -49 l-6 -44 -46 7 c-25 4 -47 8 -49 9 -1 2 1 24
4 49 l7 47 41 -6 c22 -4 44 -9 48 -13z m-863 -27 c2 -2 0 -24 -3 -49 l-7 -46
-37 6 c-56 10 -61 12 -57 32 16 80 12 75 58 68 23 -4 44 -9 46 -11z m2217 -7
c3 -3 3 -24 -1 -46 -7 -44 -14 -47 -74 -35 -26 5 -30 10 -26 30 3 13 7 35 10
48 4 21 8 23 45 16 23 -4 43 -10 46 -13z m-3354 7 c40 -7 39 -2 23 -78 -5 -22
-9 -24 -43 -19 -50 8 -55 14 -47 62 7 43 9 44 67 35z m2234 -9 c11 -3 4 -78
-8 -91 -3 -2 -24 -2 -47 2 -44 7 -47 13 -35 73 6 30 8 31 43 25 20 -3 41 -7
47 -9z m-858 -29 c1 -2 -1 -24 -4 -49 l-7 -47 -41 6 c-22 4 -44 9 -48 13 -4 3
-4 26 -1 49 l6 44 46 -7 c25 -4 47 -8 49 -9z m-1139 -2 c21 -4 31 -12 31 -25
0 -22 -7 -27 -58 -35 -38 -6 -42 -4 -42 14 0 50 11 57 69 46z m2245 -14 c12
-11 -3 -90 -17 -90 -7 0 -29 3 -49 6 -40 7 -39 2 -23 78 5 22 9 24 43 19 20
-3 41 -9 46 -13z m-3334 -47 c0 -25 -2 -25 -47 -19 -25 3 -48 8 -50 9 -2 2 0
18 3 34 l6 31 44 -15 c37 -12 44 -19 44 -40z m4379 -5 c1 -10 -6 -18 -14 -18
-17 0 -18 4 -8 51 7 33 7 33 14 9 4 -14 7 -33 8 -42z m-4155 37 c22 -5 24 -9
19 -43 -8 -50 -14 -55 -63 -47 -42 7 -42 7 -36 44 3 20 6 42 6 49 0 8 9 11 25
7 14 -3 36 -7 49 -10z m3348 -24 c4 -3 4 -26 1 -49 l-6 -44 -46 7 c-25 4 -47
8 -49 9 -1 2 1 24 4 49 l7 47 41 -6 c22 -4 44 -9 48 -13z m-3108 -16 c27 -6
28 -8 23 -46 -3 -23 -8 -43 -11 -46 -3 -3 -25 -2 -49 1 l-44 7 8 42 c4 23 8
45 9 49 0 6 6 5 64 -7z m899 -33 l-6 -42 -36 6 c-64 10 -73 19 -53 52 7 9 89
33 99 28 1 -1 -1 -21 -4 -44z m1333 28 c15 0 18 -29 8 -68 -4 -15 -12 -21 -23
-18 -9 2 -28 7 -43 10 -21 5 -28 12 -28 30 0 46 10 58 43 52 16 -3 36 -6 43
-6z m-1136 -4 c0 -2 -11 -6 -25 -8 -14 -3 -25 -1 -25 3 0 5 11 9 25 9 14 0 25
-2 25 -4z m910 -16 c0 -15 -7 -20 -29 -20 -16 0 -31 6 -34 14 -8 19 1 26 35
26 21 0 28 -5 28 -20z m1334 5 c21 -4 23 -8 16 -45 -4 -23 -10 -43 -13 -46 -3
-3 -24 -3 -46 1 -44 7 -47 14 -35 74 5 26 10 30 30 26 13 -3 35 -7 48 -10z
m-3101 -20 c37 -7 34 -22 -5 -30 -18 -4 -41 -9 -50 -11 -14 -4 -18 1 -18 19 0
13 3 26 6 29 5 6 11 5 67 -7z m2255 -10 c1 -1 0 -21 -4 -45 l-7 -42 -46 7
c-25 4 -47 8 -48 9 -1 1 1 21 4 44 l6 43 46 -7 c25 -4 47 -8 49 -9z m-1120
-10 c3 -2 1 -25 -2 -50 -7 -41 -9 -45 -32 -40 -13 3 -35 7 -48 10 -16 3 -23
11 -21 22 16 80 12 76 58 69 23 -4 43 -9 45 -11z m2216 -5 c12 -11 -3 -90 -17
-90 -7 0 -29 3 -49 6 -40 7 -39 2 -23 78 5 22 9 24 43 19 20 -3 41 -9 46 -13z
m-3078 -23 c1 -1 -1 -20 -5 -42 -7 -39 -7 -40 -49 -39 -23 0 -45 3 -48 6 -3 4
-3 26 1 51 l7 44 46 -8 c25 -5 46 -10 48 -12z m2216 -3 c6 -4 5 -9 -6 -65 -6
-26 -7 -27 -48 -17 -23 5 -44 11 -46 13 -2 2 -1 22 3 45 l7 41 41 -6 c23 -4
45 -9 49 -11z m-2472 -20 c0 -26 -1 -27 -47 -20 -73 10 -73 21 -2 35 24 5 45
9 47 10 1 1 2 -11 2 -25z m1357 13 c2 -2 0 -25 -3 -50 -6 -43 -9 -46 -30 -42
-78 16 -76 15 -70 38 3 12 6 33 6 46 0 23 2 23 47 17 25 -3 48 -8 50 -9z
m2228 -8 c2 -3 1 -23 -2 -47 -6 -45 -11 -48 -72 -36 -32 7 -32 8 -25 48 3 22
8 44 10 47 4 6 81 -5 89 -12z m-3122 -14 c41 -8 33 -33 -19 -55 -56 -25 -54
-25 -54 3 0 41 11 65 28 61 10 -1 29 -5 45 -9z m-1091 -14 c3 -3 3 -24 -1 -46
l-7 -40 -44 3 c-24 2 -46 4 -48 6 -2 3 0 25 3 50 l7 46 42 -6 c22 -4 44 -9 48
-13z m3347 3 c2 -2 0 -24 -4 -49 l-6 -47 -42 7 c-53 9 -56 11 -52 33 16 77 12
73 58 66 23 -4 44 -8 46 -10z m-1147 0 c40 -7 39 -2 23 -78 -5 -22 -9 -24 -43
-19 -50 8 -55 14 -47 62 7 43 9 44 67 35z m-1963 -40 c10 -3 12 -16 8 -45 -3
-22 -8 -43 -10 -46 -3 -3 -24 -2 -46 2 -36 6 -41 10 -41 33 0 58 10 72 44 66
17 -3 37 -8 45 -10z m1127 4 c2 -3 2 -24 -2 -48 l-7 -42 -44 5 c-24 2 -46 6
-48 9 -2 2 -1 23 2 47 l6 43 44 -5 c24 -2 46 -7 49 -9z m2222 -3 c1 -1 -1 -23
-4 -48 l-7 -46 -46 6 c-25 3 -47 7 -49 8 -1 1 1 23 4 49 l7 47 46 -7 c25 -4
47 -8 49 -9z m830 -60 c-3 -3 -19 -2 -36 1 -27 5 -32 11 -32 34 0 41 9 42 42
4 17 -19 29 -37 26 -39z m-1950 50 c3 -2 1 -25 -2 -50 -7 -41 -9 -45 -32 -40
-13 3 -35 7 -48 10 -16 3 -23 11 -21 22 16 80 12 76 58 69 23 -4 43 -9 45 -11z
m-1990 -31 c10 -3 12 -15 7 -47 -4 -23 -9 -43 -10 -45 -2 -2 -24 0 -49 3 l-46
7 6 37 c9 60 11 61 46 55 18 -3 39 -8 46 -10z m1126 5 c2 -2 1 -22 -3 -44 -7
-39 -7 -40 -49 -39 -23 0 -45 3 -48 7 -3 3 -3 24 1 48 l7 41 45 -5 c24 -2 46
-6 47 -8z m2222 -4 c11 -3 4 -78 -8 -91 -3 -2 -24 -2 -47 2 -44 7 -47 13 -35
73 6 30 8 31 43 25 20 -3 41 -7 47 -9z m-2723 -2 c-7 -2 -19 -2 -25 0 -7 3 -2
5 12 5 14 0 19 -2 13 -5z m1615 -7 c1 -2 -1 -24 -4 -49 l-7 -47 -41 6 c-22 4
-44 9 -48 13 -4 3 -4 26 -1 49 l6 44 46 -7 c25 -4 47 -8 49 -9z m-905 -21 c22
-4 27 -11 27 -35 0 -26 -4 -30 -27 -30 -16 0 -38 -3 -50 -6 -19 -5 -23 -2 -23
17 0 43 11 67 28 63 10 -1 29 -5 45 -9z m-1099 -10 c22 -5 24 -9 19 -43 -8
-50 -14 -55 -63 -47 -42 7 -42 7 -36 44 3 20 6 42 6 49 0 8 9 11 25 7 14 -3
36 -7 49 -10z m3355 -1 c2 -2 0 -24 -4 -50 -6 -45 -7 -46 -37 -40 -17 3 -39 6
-49 6 -15 0 -18 5 -14 25 17 82 12 76 58 69 23 -4 44 -8 46 -10z m-1147 0 c40
-7 39 -2 23 -78 -5 -22 -9 -24 -43 -19 -50 8 -55 14 -47 62 7 43 9 44 67 35z
m-869 -29 c22 -4 28 -11 25 -28 -2 -12 -9 -22 -15 -21 -7 1 -29 2 -48 3 -30 1
-35 5 -35 24 0 13 3 26 6 29 5 6 11 5 67 -7z m-2183 -7 c-1 -46 -14 -88 -29
-88 -34 0 -43 16 -36 59 6 37 10 41 36 41 17 0 29 -5 29 -12z m1089 -4 c10 -3
12 -16 8 -45 -3 -22 -8 -43 -10 -46 -3 -3 -24 -2 -46 2 -36 6 -41 10 -41 33 0
58 10 72 44 66 17 -3 37 -8 45 -10z m3353 -3 c4 -3 4 -26 1 -49 l-6 -44 -46 7
c-25 4 -47 8 -49 9 -1 2 1 24 4 49 l7 47 41 -6 c22 -4 44 -9 48 -13z m-1113
-7 c2 -2 0 -24 -3 -49 l-7 -46 -37 6 c-56 10 -61 12 -57 32 16 80 12 75 58 68
23 -4 44 -9 46 -11z m-3092 -18 c2 -1 -1 -22 -5 -47 l-8 -44 -44 3 c-25 2 -46
5 -48 7 -2 2 0 24 3 50 l7 46 47 -7 c25 -4 47 -7 48 -8z m1043 -18 c-25 -9
-36 -5 -26 10 3 6 16 8 28 4 l22 -5 -24 -9z m1120 14 c0 -5 -9 -17 -21 -28
-21 -19 -21 -19 -8 9 12 26 29 37 29 19z m1168 -16 c1 -2 -1 -24 -4 -49 l-7
-47 -41 6 c-22 4 -44 9 -48 13 -4 3 -4 26 -1 49 l6 44 46 -7 c25 -4 47 -8 49
-9z m-3109 -16 c22 0 23 -3 18 -45 -2 -26 -7 -48 -9 -51 -3 -2 -24 -2 -47 2
-36 6 -41 10 -41 33 0 52 11 73 34 67 11 -3 32 -6 45 -6z m3342 -20 c15 0 18
-5 14 -25 -17 -82 -12 -76 -58 -69 -23 4 -44 8 -46 10 -2 2 0 24 4 50 6 45 7
46 37 40 17 -3 39 -6 49 -6z m-3102 -20 c22 0 23 -2 16 -47 -4 -27 -8 -49 -9
-51 -2 -1 -24 1 -50 4 l-46 7 6 36 c9 59 12 64 37 57 12 -3 33 -6 46 -6z
m3350 -26 c2 -2 0 -24 -3 -49 l-7 -46 -37 6 c-56 10 -61 12 -57 32 16 80 12
75 58 68 23 -4 44 -9 46 -11z m-3111 -14 c35 0 26 -16 -17 -28 -51 -16 -51
-16 -51 14 0 22 3 25 23 20 12 -3 32 -6 45 -6z m2227 -10 l20 -9 -20 1 c-11 0
-31 4 -45 8 l-25 8 25 0 c14 0 34 -3 45 -8z m1133 -15 c1 -1 -1 -23 -4 -49
l-7 -47 -46 7 c-25 4 -47 8 -49 9 -1 1 1 23 4 49 l7 47 46 -7 c25 -4 47 -8 49
-9z m-4246 -21 l38 -7 -6 -41 c-4 -22 -9 -44 -13 -48 -6 -7 -78 5 -87 15 -9 9
9 87 20 87 6 0 28 -3 48 -6z m3346 0 c12 -4 22 -13 22 -21 0 -12 -8 -14 -37
-8 -44 8 -53 13 -53 26 0 10 34 12 68 3z m-3080 -44 c11 0 14 -9 9 -45 -2 -26
-6 -48 -9 -50 -2 -2 -22 -1 -46 2 -37 5 -42 9 -42 32 0 14 3 37 7 49 5 20 10
23 36 18 16 -3 36 -6 45 -6z m3320 4 c24 -7 31 -41 8 -50 -27 -10 -81 11 -84
34 -3 18 1 22 25 22 15 0 38 -3 51 -6z m-3082 -44 c8 0 14 -6 14 -14 0 -12
-16 -21 -96 -53 -8 -3 -10 6 -7 24 9 53 11 56 44 49 18 -3 38 -6 45 -6z m3350
-3 c1 -1 -1 -17 -3 -36 -6 -33 -6 -33 -47 -27 -51 9 -56 14 -49 50 6 27 7 28
51 22 25 -3 46 -7 48 -9z m212 -33 c23 -7 27 -28 16 -72 -4 -15 -12 -21 -23
-18 -9 2 -28 7 -43 10 -21 5 -28 12 -28 30 0 53 19 65 78 50z m-4178 -46 c0
-7 -3 -30 -6 -50 -9 -53 -34 -40 -34 18 0 37 3 44 20 44 11 0 20 -6 20 -12z
m235 -30 c2 -2 1 -23 -2 -47 l-6 -43 -44 5 c-24 2 -46 7 -49 9 -2 3 -2 24 2
48 l7 42 44 -5 c24 -2 46 -6 48 -9z"/>
<path d="M8400 12351 c0 -5 23 -14 51 -20 28 -6 98 -29 157 -51 58 -22 108
-40 110 -40 17 0 -30 35 -74 55 -115 53 -244 82 -244 56z"/>
<path d="M8544 12265 c22 -17 46 -20 46 -6 0 5 -10 11 -22 15 -37 9 -44 6 -24
-9z"/>
<path d="M9164 11594 c12 -30 45 -210 51 -280 7 -70 18 -104 30 -92 16 16 -27
298 -55 366 -11 25 -36 31 -26 6z"/>
<path d="M8135 10750 c-199 -18 -582 -94 -632 -126 -22 -14 -23 -22 -24 -127
0 -92 -13 -227 -18 -193 -14 100 -45 253 -52 261 -19 19 -24 -13 -18 -112 7
-103 9 -225 3 -183 -2 14 -9 66 -15 115 -11 89 -28 147 -28 95 -1 -77 38 -385
48 -388 6 -2 11 -16 11 -31 0 -36 26 -71 53 -71 12 0 81 9 152 20 72 11 159
25 195 30 36 5 150 15 254 22 289 18 501 -6 863 -98 83 -22 106 -24 118 -14 8
7 15 19 15 27 0 11 4 11 20 3 30 -16 41 -4 40 43 -1 23 2 77 6 119 8 89 -6
144 -16 63 -5 -32 -7 5 -8 102 l-2 153 -47 35 c-109 81 -408 205 -574 238 -99
20 -234 26 -344 17z m-728 -562 c-3 -7 -5 -2 -5 12 0 14 2 19 5 13 2 -7 2 -19
0 -25z m1688 -108 c-4 -17 -9 -30 -11 -27 -2 2 -1 18 2 36 4 17 9 30 11 27 3
-2 2 -19 -2 -36z"/>
<path d="M5830 10654 c-14 -2 -79 -11 -145 -20 -221 -30 -541 -129 -566 -176
-8 -15 -7 -37 5 -86 8 -37 17 -112 20 -167 4 -90 3 -96 -8 -61 -7 22 -18 42
-24 44 -16 5 -15 -10 4 -88 8 -36 17 -85 20 -108 2 -24 6 -48 10 -53 9 -16 43
-10 168 30 220 70 316 86 526 86 273 0 435 -33 637 -131 51 -24 106 -44 122
-44 32 0 61 22 61 47 0 9 9 113 21 231 18 190 19 236 5 221 -2 -2 -25 -80 -50
-174 l-46 -170 5 141 c3 83 12 162 21 193 25 84 18 101 -51 138 -82 44 -310
117 -424 137 -85 14 -245 19 -311 10z"/>
<path d="M7430 10630 c0 -11 5 -20 10 -20 6 0 10 9 10 20 0 11 -4 20 -10 20
-5 0 -10 -9 -10 -20z"/>
<path d="M6707 10183 c-11 -18 -19 -153 -9 -153 15 0 37 139 24 152 -5 5 -12
6 -15 1z"/>
<path d="M7353 10116 c4 -10 7 -22 7 -27 0 -5 5 -9 11 -9 15 0 7 43 -10 48
-10 3 -12 0 -8 -12z"/>
<path d="M6700 9940 c0 -11 5 -20 10 -20 6 0 10 9 10 20 0 11 -4 20 -10 20 -5
0 -10 -9 -10 -20z"/>
<path d="M8030 9863 c-36 -8 -83 -16 -105 -16 -27 -1 -41 -7 -43 -17 -1 -8
-28 -29 -60 -45 -81 -42 -221 -183 -261 -262 -56 -112 -83 -224 -85 -348 -2
-185 47 -285 215 -436 242 -218 335 -262 628 -299 134 -18 177 -19 160 -7 -2
2 -66 15 -141 30 -76 15 -173 40 -215 57 -81 31 -198 97 -153 85 266 -67 441
-59 626 30 103 50 175 110 238 199 95 134 126 231 126 401 0 260 -109 443
-333 561 -111 58 -235 84 -396 83 -83 0 -161 -6 -201 -16z m350 -70 c52 -8
122 -21 154 -30 142 -35 267 -131 327 -251 32 -63 34 -74 37 -192 5 -177 -19
-290 -85 -401 -89 -150 -177 -217 -342 -261 -107 -28 -335 -31 -441 -4 -95 24
-211 70 -275 111 -61 39 -136 120 -163 177 -79 169 -62 443 38 597 65 102 210
211 332 250 99 32 236 33 418 4z"/>
<path d="M5655 9816 c-85 -16 -215 -66 -275 -104 -167 -107 -258 -258 -279
-467 -10 -97 1 -204 30 -294 29 -91 139 -244 217 -304 61 -46 176 -99 267
-123 105 -27 282 -24 404 8 108 29 102 17 -24 -42 -83 -40 -193 -72 -329 -96
-155 -27 -88 -33 94 -8 257 34 371 87 566 258 146 129 173 161 215 249 58 125
63 265 14 432 -38 130 -78 198 -171 291 -67 67 -99 90 -175 128 -52 25 -121
53 -154 62 -82 22 -309 28 -400 10z m448 -84 c151 -54 282 -160 344 -278 89
-167 95 -420 15 -579 -57 -113 -204 -215 -387 -267 -70 -20 -102 -23 -255 -23
-193 1 -255 12 -362 66 -77 39 -128 86 -183 169 -64 96 -86 151 -101 254 -37
245 -3 390 119 509 81 79 179 118 392 157 145 26 332 22 418 -8z"/>
<path d="M7754 9789 c-62 -33 -122 -84 -111 -95 3 -4 30 9 59 28 29 19 72 46
95 59 24 13 43 27 43 32 0 14 -28 7 -86 -24z"/>
<path d="M6490 9532 c0 -20 114 -245 118 -233 6 17 -23 93 -64 168 -33 59 -54
85 -54 65z"/>
<path d="M6615 9241 c-3 -5 -1 -12 5 -16 5 -3 10 1 10 9 0 18 -6 21 -15 7z"/>
<path d="M4760 9006 c0 -112 13 -161 26 -97 4 17 10 28 15 25 5 -3 9 2 9 10 0
9 -4 16 -10 16 -6 0 -10 33 -10 80 0 64 -3 80 -15 80 -12 0 -15 -19 -15 -114z"/>
<path d="M8893 8878 c-17 -24 -59 -74 -93 -111 -66 -71 -76 -105 -14 -46 48
45 121 141 134 173 13 36 8 33 -27 -16z"/>
<path d="M8826 8741 c-4 -7 -5 -15 -2 -18 9 -9 19 4 14 18 -4 11 -6 11 -12 0z"/>
<path d="M7590 8682 c0 -4 21 -43 48 -87 55 -93 83 -112 260 -175 147 -53 288
-88 276 -69 -3 5 -14 9 -26 9 -41 0 -197 60 -274 105 -111 66 -160 102 -226
167 -32 32 -58 54 -58 50z"/>
<path d="M5269 8662 c15 -28 95 -95 99 -83 3 9 -65 77 -95 94 -12 7 -13 5 -4
-11z"/>
<path d="M6436 8595 c-31 -40 -189 -156 -286 -209 -36 -19 -106 -47 -155 -61
-81 -23 -85 -25 -38 -21 62 6 205 54 325 108 91 42 100 51 162 161 33 59 29
71 -8 22z"/>
<path d="M5455 8530 c3 -5 10 -10 16 -10 5 0 9 5 9 10 0 6 -7 10 -16 10 -8 0
-12 -4 -9 -10z"/>
<path d="M6536 8031 c-4 -5 -9 -31 -12 -58 -9 -64 12 -46 21 20 7 44 3 58 -9
38z"/>
<path d="M7025 7999 c-145 -10 -281 -51 -522 -156 -16 -6 -18 44 -3 81 5 14 6
26 2 26 -4 -1 -29 -44 -55 -98 -41 -81 -47 -101 -39 -122 6 -14 16 -31 23 -37
41 -33 249 -70 249 -44 0 6 -8 11 -18 11 -25 0 -115 46 -136 69 -16 18 -14 21
61 64 125 71 176 95 255 117 165 46 320 45 463 -1 76 -26 250 -130 250 -151 0
-7 -34 -30 -75 -50 -85 -43 -79 -46 41 -19 130 29 160 49 144 100 -7 24 -87
77 -202 135 -145 72 -243 89 -438 75z"/>
<path d="M6722 7811 c-48 -23 -59 -42 -44 -75 16 -36 85 -49 158 -30 100 26
128 59 84 99 -31 28 -143 31 -198 6z m175 -45 c-18 -14 -184 -33 -194 -23 -11
11 94 36 152 36 53 0 58 -1 42 -13z"/>
<path d="M7183 7819 c-64 -18 -61 -78 4 -106 28 -11 56 -14 103 -10 78 7 97
13 111 38 31 60 -109 110 -218 78z m156 -45 c32 -7 41 -19 19 -26 -7 -2 -56
-2 -108 2 -95 6 -95 6 -50 17 54 13 97 15 139 7z"/>
<path d="M6756 7501 c-4 -6 -3 -18 2 -27 8 -15 10 -14 16 2 8 20 -8 42 -18 25z"/>
<path d="M7210 7491 c0 -6 4 -13 10 -16 6 -3 7 1 4 9 -7 18 -14 21 -14 7z"/>
<path d="M6707 7413 c-4 -3 -7 -11 -7 -17 0 -6 5 -5 12 2 6 6 9 14 7 17 -3 3
-9 2 -12 -2z"/>
<path d="M7185 7400 c3 -5 11 -10 16 -10 6 0 7 5 4 10 -3 6 -11 10 -16 10 -6
0 -7 -4 -4 -10z"/>
<path d="M7400 7363 c1 -12 51 -46 57 -39 9 8 -27 46 -44 46 -7 0 -13 -3 -13
-7z"/>
<path d="M8220 7345 c0 -3 9 -14 21 -26 26 -26 39 -16 14 11 -17 19 -35 26
-35 15z"/>
<path d="M7635 7330 c3 -5 11 -10 16 -10 6 0 7 5 4 10 -3 6 -11 10 -16 10 -6
0 -7 -4 -4 -10z"/>
<path d="M6786 7288 c-24 -34 -19 -44 9 -18 14 13 25 27 25 32 0 16 -19 8 -34
-14z"/>
<path d="M6361 7266 c-14 -14 -21 -29 -17 -33 9 -9 49 32 44 47 -2 6 -13 1
-27 -14z"/>
<path d="M6695 7280 c-3 -5 -1 -10 4 -10 6 0 11 5 11 10 0 6 -2 10 -4 10 -3 0
-8 -4 -11 -10z"/>
<path d="M8145 7125 c25 -31 45 -59 45 -64 0 -10 -125 -48 -200 -60 -30 -5
-216 -12 -413 -15 -381 -7 -504 -14 -822 -46 -189 -19 -741 -70 -758 -70 -12
0 5 26 77 123 36 49 66 91 66 94 0 3 -24 -16 -52 -43 -29 -27 -94 -85 -145
-128 -51 -43 -95 -87 -99 -99 -8 -26 30 -61 60 -53 12 3 171 30 355 61 463 78
583 87 1200 91 523 3 575 6 736 45 104 25 121 33 128 58 8 33 -18 57 -119 110
-53 28 -99 51 -101 51 -2 0 17 -25 42 -55z"/>
<path d="M5817 7095 c-19 -39 -21 -55 -9 -55 9 0 42 64 42 80 0 21 -17 8 -33
-25z"/>
<path d="M8450 7055 c-10 -12 -10 -15 4 -15 9 0 16 7 16 15 0 8 -2 15 -4 15
-2 0 -9 -7 -16 -15z"/>
<path d="M7125 6641 c-3 -5 -1 -12 5 -16 5 -3 10 1 10 9 0 18 -6 21 -15 7z"/>
<path d="M6999 6594 c-6 -48 24 -125 69 -183 42 -53 35 -10 -15 88 -29 57 -53
100 -54 95z"/>
<path d="M7291 6533 c0 -42 3 -52 9 -38 12 28 12 95 0 95 -6 0 -10 -25 -9 -57z"/>
<path d="M7064 6546 c-7 -18 22 -86 37 -86 11 0 8 25 -11 75 -11 28 -18 31
-26 11z"/>
<path d="M7150 6511 c0 -22 5 -43 10 -46 6 -4 10 10 10 34 0 22 -4 43 -10 46
-6 4 -10 -10 -10 -34z"/>
<path d="M8050 5688 c0 -21 5 -38 10 -38 13 0 13 40 0 60 -7 11 -10 5 -10 -22z"/>
<path d="M6160 5637 c0 -34 23 -78 32 -61 7 14 -12 94 -23 94 -5 0 -9 -15 -9
-33z"/>
<path d="M7663 5619 c4 -13 7 -36 7 -51 0 -16 5 -28 11 -28 16 0 7 93 -10 98
-10 4 -12 -1 -8 -19z"/>
<path d="M7960 5530 c0 -11 5 -20 10 -20 6 0 10 9 10 20 0 11 -4 20 -10 20 -5
0 -10 -9 -10 -20z"/>
<path d="M7400 5289 c0 -62 2 -70 15 -59 10 8 15 31 15 71 0 46 -3 59 -15 59
-12 0 -15 -15 -15 -71z"/>
<path d="M6693 5278 c7 -55 27 -91 27 -47 0 45 -13 99 -23 99 -6 0 -7 -20 -4
-52z"/>
<path d="M6798 5276 c-1 -31 -2 -63 -2 -73 -1 -9 5 -18 12 -20 9 -4 12 14 12
66 0 84 -19 108 -22 27z"/>
<path d="M6990 5305 c0 -20 22 -65 32 -65 11 0 10 11 -3 49 -11 32 -29 42 -29
16z"/>
<path d="M7200 5271 c0 -22 5 -43 10 -46 6 -4 10 12 10 39 0 25 -4 46 -10 46
-5 0 -10 -18 -10 -39z"/>
<path d="M10340 9044 c0 -14 4 -23 9 -20 5 3 7 15 4 26 -7 28 -13 25 -13 -6z"/>
<path d="M9977 8953 c-12 -12 -7 -22 8 -17 8 4 15 10 15 15 0 11 -14 12 -23 2z"/>
<path d="M4102 9063 c-57 -28 -63 -52 -52 -210 8 -128 29 -235 51 -257 5 -6
17 -5 31 1 13 6 53 25 89 42 37 17 72 31 78 31 6 0 11 7 11 15 0 8 6 15 13 15
19 0 59 44 55 61 -2 8 3 13 10 11 8 -1 11 2 8 7 -4 5 -2 12 3 15 14 9 60 -55
67 -93 5 -24 -1 -49 -26 -102 -27 -59 -32 -79 -28 -124 4 -47 12 -63 66 -134
73 -97 81 -130 63 -276 -11 -92 -10 -104 8 -155 11 -32 22 -49 25 -40 18 58
28 138 30 243 1 142 -10 175 -88 265 -70 81 -70 101 -1 187 46 56 55 78 55
125 0 76 -66 167 -197 271 -71 57 -184 119 -216 119 -12 0 -37 -8 -55 -17z"/>
<path d="M3950 8839 c0 -34 26 -143 41 -172 21 -38 26 -4 8 55 -10 34 -21 81
-25 105 -7 50 -24 58 -24 12z"/>
<path d="M4010 8610 c0 -5 5 -10 10 -10 6 0 10 5 10 10 0 6 -4 10 -10 10 -5 0
-10 -4 -10 -10z"/>
<path d="M6640 4482 c0 -14 89 -96 97 -89 4 4 -13 28 -37 52 -42 43 -60 54
-60 37z"/>
<path d="M6789 4393 c15 -30 134 -139 170 -158 50 -25 133 -29 237 -11 104 18
214 61 214 83 0 10 -6 13 -15 9 -107 -41 -288 -51 -390 -22 -63 19 -131 54
-178 93 -34 28 -52 30 -38 6z"/>
<path d="M7488 4330 c-61 -41 -77 -60 -50 -60 11 0 25 7 32 15 6 8 22 13 33
12 14 -1 22 4 22 13 0 8 4 21 9 28 15 25 -1 22 -46 -8z"/>
<path d="M6812 4323 c2 -10 11 -19 21 -21 12 -2 15 1 11 12 -8 22 -36 30 -32
9z"/>
<path d="M8079 3964 c-29 -25 -86 -71 -127 -102 -42 -31 -71 -57 -65 -59 25
-9 181 108 240 177 38 45 10 36 -48 -16z"/>
<path d="M8139 3971 c-19 -16 -20 -20 -8 -21 17 0 45 27 37 35 -3 3 -16 -3
-29 -14z"/>
</g>
</svg>
